<svg width="20" height="24" viewBox="0 0 20 24" fill="none" xmlns="http://www.w3.org/2000/svg">
<path d="M18.1665 6.16659H14.6665V4.99992C14.6665 3.76224 14.1748 2.57526 13.2997 1.70009C12.4245 0.824917 11.2375 0.333252 9.99983 0.333252C8.76216 0.333252 7.57517 0.824917 6.7 1.70009C5.82483 2.57526 5.33317 3.76224 5.33317 4.99992V6.16659H1.83317C1.52375 6.16659 1.22701 6.2895 1.00821 6.50829C0.78942 6.72709 0.666504 7.02383 0.666504 7.33325V20.1666C0.666504 21.0948 1.03525 21.9851 1.69163 22.6415C2.34801 23.2978 3.23824 23.6666 4.1665 23.6666H15.8332C16.7614 23.6666 17.6517 23.2978 18.308 22.6415C18.9644 21.9851 19.3332 21.0948 19.3332 20.1666V7.33325C19.3332 7.02383 19.2102 6.72709 18.9915 6.50829C18.7727 6.2895 18.4759 6.16659 18.1665 6.16659ZM7.6665 4.99992C7.6665 4.38108 7.91233 3.78759 8.34992 3.35C8.7875 2.91242 9.38099 2.66659 9.99983 2.66659C10.6187 2.66659 11.2122 2.91242 11.6497 3.35C12.0873 3.78759 12.3332 4.38108 12.3332 4.99992V6.16659H7.6665V4.99992ZM16.9998 20.1666C16.9998 20.476 16.8769 20.7728 16.6581 20.9915C16.4393 21.2103 16.1426 21.3333 15.8332 21.3333H4.1665C3.85708 21.3333 3.56034 21.2103 3.34154 20.9915C3.12275 20.7728 2.99984 20.476 2.99984 20.1666V8.49992H5.33317V9.66659C5.33317 9.97601 5.45608 10.2728 5.67488 10.4915C5.89367 10.7103 6.19041 10.8333 6.49983 10.8333C6.80925 10.8333 7.106 10.7103 7.32479 10.4915C7.54358 10.2728 7.6665 9.97601 7.6665 9.66659V8.49992H12.3332V9.66659C12.3332 9.97601 12.4561 10.2728 12.6749 10.4915C12.8937 10.7103 13.1904 10.8333 13.4998 10.8333C13.8092 10.8333 14.106 10.7103 14.3248 10.4915C14.5436 10.2728 14.6665 9.97601 14.6665 9.66659V8.49992H16.9998V20.1666Z" fill="#AE1332" style="fill:#AE1332;fill:color(display-p3 0.6824 0.0745 0.1961);fill-opacity:1;"/>
</svg>
